# xmcd
#
# Track frame offsets: 
#        150
#        33977
#        46536
#        59720
#        73910
#        85016
#        98953
#        112349
#        126516
#        138546
#        148965
#        159409
#        173394
#        186273
#        199083
#        213502
#        225800
#        239196
#
# Disc length: 3344 seconds
#
# Revision: 1
# Processed by: cddbd v1.5.2PL0 Copyright (c) Steve Scherf et al.
# Submitted via: ExactAudioCopy v1.0b3
#
DISCID=0f0d0e12
DTITLE=Ray Charles - The Genius of Soul Plays and Sings the Blues
DYEAR=2006
DGENRE=Blues
TTITLE0=Georgia On My Mind
TTITLE1=C.C. Rider
TTITLE2=Don't Put All Your Dreams In One Basket
TTITLE3=Blues Is My Middle Name
TTITLE4=A Sentimental Blues
TTITLE5=This Love Of Mine
TTITLE6=Baby Won't You Please Come Home
TTITLE7=Kiss Me Baby
TTITLE8=Can't See You Darling
TTITLE9=Sittin' On Top Of The World (Now She's Gone)
TTITLE10=Ain't That Fine
TTITLE11=I'm Going Down To The River
TTITLE12=You Always Miss The Water (When The Well)
TTITLE13=Can Anyone Ask For More
TTITLE14=Someday
TTITLE15=I've Had My Fun (Going Down Slow)
TTITLE16=Alone In The City
TTITLE17=How Long, How Long Blues
EXTD=YEAR: 2006
EXTT0=
EXTT1=
EXTT2=
EXTT3=
EXTT4=
EXTT5=
EXTT6=
EXTT7=
EXTT8=
EXTT9=
EXTT10=
EXTT11=
EXTT12=
EXTT13=
EXTT14=
EXTT15=
EXTT16=
EXTT17=
PLAYORDER=
